<svg xmlns:dc="http://purl.org/dc/elements/1.1/" xmlns:cc="http://creativecommons.org/ns#" xmlns:rdf="http://www.w3.org/1999/02/22-rdf-syntax-ns#" xmlns:svg="http://www.w3.org/2000/svg" xmlns="http://www.w3.org/2000/svg" xmlns:sodipodi="http://sodipodi.sourceforge.net/DTD/sodipodi-0.dtd" xmlns:inkscape="http://www.inkscape.org/namespaces/inkscape" version="1.1" x="0px" y="0px" viewBox="0 0 100 125"><g transform="translate(0,-952.36218)"><path style="font-size:medium;font-style:normal;font-variant:normal;font-weight:normal;font-stretch:normal;text-indent:0;text-align:start;text-decoration:none;line-height:normal;letter-spacing:normal;word-spacing:normal;text-transform:none;direction:ltr;block-progression:tb;writing-mode:lr-tb;text-anchor:start;baseline-shift:baseline;opacity:1;color:#000000;fill:#000000;fill-opacity:1;stroke:none;stroke-width:4;marker:none;visibility:visible;display:inline;overflow:visible;enable-background:accumulate;font-family:Sans;-inkscape-font-specification:Sans" d="M 54 14 C 51.941351 14 50.220724 14.76386 49.09375 15.875 C 48.423024 16.5363 47.995494 17.27606 47.65625 18 L 46 18 A 2.0002 2.0002 0 0 0 44.6875 18.46875 L 38.28125 24 L 32 24 A 2.0002 2.0002 0 0 0 31.8125 24 A 2.0002 2.0002 0 0 0 30 26 L 30 76 A 2.0002 2.0002 0 0 0 32 78 L 76 78 A 2.0002 2.0002 0 0 0 78 76 L 78 26 A 2.0002 2.0002 0 0 0 76 24 L 69.71875 24 L 63.3125 18.46875 A 2.0002 2.0002 0 0 0 62 18 L 60.34375 18 C 60.004506 17.27606 59.576976 16.5363 58.90625 15.875 C 57.779276 14.76386 56.058649 14 54 14 z M 54 18 C 55.144118 18 55.649453 18.31195 56.09375 18.75 C 56.538047 19.18805 56.868225 19.84722 57.0625 20.53125 A 2.0002 2.0002 0 0 0 59 22 L 61.28125 22 L 63.59375 24 L 44.40625 24 L 46.71875 22 L 49 22 A 2.0002 2.0002 0 0 0 50.9375 20.53125 C 51.131775 19.84722 51.461953 19.18805 51.90625 18.75 C 52.350547 18.31195 52.855882 18 54 18 z M 34 28 L 74 28 L 74 74 L 34 74 L 34 28 z M 23.78125 29.96875 A 2.0002 2.0002 0 0 0 22 32 L 22 84 A 2.0002 2.0002 0 0 0 24 86 L 72 86 A 2.0002 2.0002 0 1 0 72 82 L 26 82 L 26 32 A 2.0002 2.0002 0 0 0 23.78125 29.96875 z " transform="translate(0,952.36218)"/></g></svg>