<svg xmlns="http://www.w3.org/2000/svg" data-name="Слой 1" viewBox="0 0 100 125" x="0px" y="0px"><title>Drink_3</title><path d="M86.38,23.29a2.5,2.5,0,0,0-1.82-4.22H73.16L82.35,8A2.5,2.5,0,0,0,78.5,4.79L66.66,19.07H15.44a2.5,2.5,0,0,0-1.82,4.22L26.07,36.45h0L47.5,59.09v26L29.92,91.26a2.5,2.5,0,0,0,.83,4.86H69.25a2.5,2.5,0,0,0,.83-4.86L52.5,85.07v-26Zm-20,13.9L50,54.46,33.65,37.19ZM78.76,24.07,71,32.22a2.48,2.48,0,0,0-.34,0H62.29L69,24.07Zm-16.23,0L55.8,32.18H28.92l-7.68-8.11Zm-17.14,67L50,89.49l4.62,1.63Z"/><path d="M46,48.36a6.11,6.11,0,0,0,8.64-8.64h0A6.11,6.11,0,0,0,46,48.36Zm3.54-5.11a1.11,1.11,0,1,1,0,1.57A1.11,1.11,0,0,1,49.5,43.26Z"/></svg>