<svg xmlns="http://www.w3.org/2000/svg" xmlns:xlink="http://www.w3.org/1999/xlink" version="1.1" x="0px" y="0px" viewBox="0 0 48 60" enable-background="new 0 0 48 48" xml:space="preserve"><g><path fill="none" stroke="#000000" stroke-width="2" stroke-linecap="round" stroke-linejoin="round" stroke-miterlimit="10" d="   M24,8.744c-10.951,0-19.83,8.463-19.83,18.902h39.66C43.83,17.207,34.952,8.744,24,8.744z"/><ellipse fill="none" stroke="#000000" stroke-width="2" stroke-linecap="round" stroke-linejoin="round" stroke-miterlimit="10" cx="24" cy="4.871" rx="4.063" ry="3.873"/><path fill="none" stroke="#000000" stroke-width="2" stroke-linecap="round" stroke-linejoin="round" stroke-miterlimit="10" d="   M41.603,37.188c0,0-6.112,7.236-11.516,7.053C24.685,44.057,17.35,42.768,15.42,47H3.07c0,0,6.305-10.977,11.643-11.836   c5.339-0.857,15.723-0.762,16.211-0.797c1.029-0.074,3.018,2.553-0.707,3.25c-3.603,0.674-8.878,1.41-8.878,1.41   s7.462,1.865,10.42,0.395c2.959-1.471,5.343-2.076,6.691-3.705C39.415,34.551,43.275,34.674,41.603,37.188z"/><line fill="none" stroke="#000000" stroke-width="2" stroke-linecap="round" stroke-linejoin="round" stroke-miterlimit="10" x1="1" y1="30.863" x2="47" y2="30.863"/></g></svg>