<svg xmlns="http://www.w3.org/2000/svg" viewBox="0 0 45.72 54.8625" x="0px" y="0px"><title>Asset 29</title><g data-name="Layer 2"><g data-name="Layer 1"><path d="M32.7,22.92,45.43,10.19a1,1,0,0,0,0-1.41,1,1,0,0,0-1.42,0L31.29,21.51a1,1,0,0,1-1.42,0l-.71-.71L42.6,7.36A1,1,0,0,0,42.6,6a1,1,0,0,0-1.42,0L27.75,19.38,26.34,18,39.77,4.54a1,1,0,0,0,0-1.42,1,1,0,0,0-1.41,0L24.92,16.56l-.71-.71a1,1,0,0,1,0-1.42L36.94,1.71a1,1,0,0,0,0-1.42,1,1,0,0,0-1.41,0L22.8,13a3,3,0,0,0,0,4.24l-1.91,1.92L4.64,2.93a1,1,0,0,0-1.42,0h0a11,11,0,0,0,0,15.54l9.19,9.18L3,37.06a4,4,0,1,0,5.66,5.66l10-10,.16-.13,2.12-2.12L33.63,43.24a1,1,0,0,0,1.41,0L39.29,39a1,1,0,0,0,0-1.42L26.55,24.84l1.91-1.92A3,3,0,0,0,32.7,22.92Zm-16.06,9-9.4,9.4a2,2,0,1,1-2.82-2.82l9.4-9.4h0l2.82,2.82Zm20.53,6.39-2.83,2.83L21.61,28.39a1,1,0,0,0-1.42,0l-2.12,2.12,0,0-4.24-4.24L4.63,17.06A9,9,0,0,1,4,5.09l15.5,15.5L20.89,22h0l4.24,4.24Zm-12-14.87h0L22.3,20.59l1.91-1.91L27,21.51Z"/></g></g></svg>